# xmcd
#
# Track frame offsets: 
#        150
#        11280
#        22806
#        34182
#        44367
#        58496
#        69256
#        78528
#        86509
#        98165
#        107548
#        117401
#        126427
#        137676
#        150392
#        163456
#        173847
#        185184
#        195597
#        206373
#        216214
#        224332
#        235713
#        244369
#        258502
#        267661
#        278442
#
# Disc length: 3916 seconds
#
# Revision: 0
# Processed by: cddbd v1.5.2PL0 Copyright (c) Steve Scherf et al.
# Submitted via: ExactAudioCopy v0.99pb4
#
DISCID=880f4a1b
DTITLE=Various Artist - Hillbilly Hop Vol.5
DYEAR=1900
DGENRE=Country
TTITLE0=Porter Wagoner - Itchin' for my baby
TTITLE1=Tony Douglas - Thunder and lighting
TTITLE2=Bill Parsons - Hot rod volkswagen
TTITLE3=Lee Bonds - Wild cattin' woman
TTITLE4=Jimmy Work - Rock island line
TTITLE5=Ebe Sneezer and his Epidemics - Asiatic flu
TTITLE6=Billy Deaton - Six Cents a mile
TTITLE7=Jim Nesbit - (go on and) Cry me a river
TTITLE8=Red Foley - Tennessee whistling man
TTITLE9=Terry Fell - I'm hot to trot
TTITLE10=Johnny and Jack - Tom cat's kitten
TTITLE11=Charlie Walker - I'll never let it show
TTITLE12=Billy Jack Hale - Danger moved west
TTITLE13=The Country Dudes - Have a ball
TTITLE14=Roy Kelly and The Westernairs - Dragen it boogie
TTITLE15=Ann Jones - Get up and go
TTITLE16=Lefty Nicks and His Southern Drifters - Model a ford blues
TTITLE17=Rudy Thacker and The Stringbusters - Mountain guitar
TTITLE18=Buck Griffin - Let's elope baby
TTITLE19=Neal Jones - Hot jing jolly(I've got me a girl)
TTITLE20=Betty Amos - Cheater cheater
TTITLE21=Betty Amos - Yes mama mama
TTITLE22=Hollis Albin (The Louisiana Coon Hunter) - Vee eight ford boo
TTITLE22=gie
TTITLE23=Hollis Albin - Uncle earl don't stand alone
TTITLE24=Jimmy Boyd - Crazy mixed up blues
TTITLE25=Jimmy Boyd - Rockin' down the mississippi
TTITLE26=Arthur (Guitar Boogie) Smith - Guitar boogie
EXTD=
EXTT0=
EXTT1=
EXTT2=
EXTT3=
EXTT4=
EXTT5=
EXTT6=
EXTT7=
EXTT8=
EXTT9=
EXTT10=
EXTT11=
EXTT12=
EXTT13=
EXTT14=
EXTT15=
EXTT16=
EXTT17=
EXTT18=
EXTT19=
EXTT20=
EXTT21=
EXTT22=
EXTT23=
EXTT24=
EXTT25=
EXTT26=
PLAYORDER=
